<svg width="133" height="108" viewBox="0 0 133 108" fill="none" xmlns="http://www.w3.org/2000/svg">
<rect x="0.0717773" width="114.55" height="100.976" rx="12" fill="#FFC2C8"/>
<path fill-rule="evenodd" clip-rule="evenodd" d="M36.6172 27.6456C36.6172 26.0538 37.9695 24.6523 39.7769 24.6523H75.8953C77.7027 24.6523 79.055 26.0538 79.055 27.6456V62.5986C79.055 64.1905 77.7027 65.5919 75.8953 65.5919H39.7769C37.9695 65.5919 36.6172 64.1905 36.6172 62.5986V27.6456ZM39.7769 20.6523C35.8851 20.6523 32.6172 23.722 32.6172 27.6456V62.5986C32.6172 66.5223 35.8851 69.5919 39.7769 69.5919H75.8953C79.7872 69.5919 83.055 66.5223 83.055 62.5986V27.6456C83.055 23.722 79.7872 20.6523 75.8953 20.6523H39.7769ZM46.7228 43.1221C45.6182 43.1221 44.7228 44.0176 44.7228 45.1221C44.7228 46.2267 45.6182 47.1221 46.7228 47.1221H68.9494C70.054 47.1221 70.9494 46.2267 70.9494 45.1221C70.9494 44.0176 70.054 43.1221 68.9494 43.1221H46.7228Z" fill="#70272E"/>
<path d="M27.9589 80.4343C30.0256 80.4343 31.6056 81.0076 32.6989 82.1543C33.8056 83.3009 34.3589 84.9276 34.3589 87.0343C34.3589 89.1409 33.8056 90.7676 32.6989 91.9143C31.6056 93.0609 30.0256 93.6343 27.9589 93.6343H22.3589V80.4343H27.9589ZM27.6189 91.0343C28.7389 91.0343 29.5523 90.7009 30.0589 90.0343C30.5789 89.3543 30.8389 88.3543 30.8389 87.0343C30.8389 85.7143 30.5789 84.7209 30.0589 84.0543C29.5523 83.3743 28.7389 83.0343 27.6189 83.0343H25.7989V91.0343H27.6189ZM41.3544 93.8343C40.2477 93.8343 39.2877 93.6276 38.4744 93.2143C37.6744 92.8009 37.0544 92.2076 36.6144 91.4343C36.1744 90.6609 35.9544 89.7276 35.9544 88.6343C35.9544 87.5409 36.1744 86.6076 36.6144 85.8343C37.0544 85.0609 37.6677 84.4676 38.4544 84.0543C39.2544 83.6409 40.1677 83.4343 41.1944 83.4343C42.2477 83.4343 43.1411 83.6409 43.8744 84.0543C44.6211 84.4543 45.1877 85.0143 45.5744 85.7343C45.9611 86.4409 46.1544 87.2543 46.1544 88.1743C46.1544 88.4143 46.1477 88.6543 46.1344 88.8943C46.1211 89.1343 46.1011 89.3343 46.0744 89.4943H38.1544V87.6743H44.5744L42.9544 88.2943C42.9544 87.4943 42.8077 86.8809 42.5144 86.4543C42.2344 86.0276 41.7944 85.8143 41.1944 85.8143C40.7677 85.8143 40.4011 85.9143 40.0944 86.1143C39.8011 86.3143 39.5744 86.6276 39.4144 87.0543C39.2677 87.4809 39.1944 88.0276 39.1944 88.6943C39.1944 89.3476 39.2811 89.8809 39.4544 90.2943C39.6277 90.6943 39.8744 90.9876 40.1944 91.1743C40.5144 91.3476 40.9011 91.4343 41.3544 91.4343C41.8611 91.4343 42.2611 91.3343 42.5544 91.1343C42.8611 90.9343 43.0877 90.6543 43.2344 90.2943L45.9544 91.1943C45.7677 91.7676 45.4411 92.2543 44.9744 92.6543C44.5211 93.0409 43.9744 93.3343 43.3344 93.5343C42.7077 93.7343 42.0477 93.8343 41.3544 93.8343ZM52.2564 93.8343C51.2564 93.8343 50.3231 93.6743 49.4564 93.3543C48.6031 93.0209 47.8964 92.5476 47.3364 91.9343L48.9364 90.0543C49.2698 90.4809 49.7098 90.8409 50.2564 91.1343C50.8164 91.4143 51.4364 91.5543 52.1164 91.5543C52.5298 91.5543 52.8698 91.4943 53.1364 91.3743C53.4031 91.2543 53.5364 91.0676 53.5364 90.8143C53.5364 90.6276 53.4698 90.4809 53.3364 90.3743C53.2031 90.2543 52.9364 90.1543 52.5364 90.0743L51.1364 89.7943C49.8831 89.5409 48.9898 89.1676 48.4564 88.6743C47.9364 88.1676 47.6764 87.5076 47.6764 86.6943C47.6764 86.1476 47.8431 85.6276 48.1764 85.1343C48.5098 84.6276 49.0231 84.2209 49.7164 83.9143C50.4098 83.5943 51.2964 83.4343 52.3764 83.4343C53.3898 83.4343 54.2831 83.5809 55.0564 83.8743C55.8298 84.1676 56.4431 84.5943 56.8964 85.1543L55.2764 86.9943C54.9564 86.5943 54.5431 86.2809 54.0364 86.0543C53.5298 85.8276 53.0231 85.7143 52.5164 85.7143C52.1964 85.7143 51.9231 85.7476 51.6964 85.8143C51.4831 85.8676 51.3231 85.9476 51.2164 86.0543C51.1098 86.1609 51.0564 86.2943 51.0564 86.4543C51.0564 86.6276 51.1364 86.7809 51.2964 86.9143C51.4698 87.0343 51.7831 87.1409 52.2364 87.2343L54.0564 87.5943C55.0831 87.7809 55.8231 88.1209 56.2764 88.6143C56.7298 89.1076 56.9564 89.7009 56.9564 90.3943C56.9564 91.0476 56.7831 91.6343 56.4364 92.1543C56.0898 92.6743 55.5698 93.0876 54.8764 93.3943C54.1831 93.6876 53.3098 93.8343 52.2564 93.8343ZM58.7205 97.8343V83.6343H61.7805L61.9605 87.2543L61.5605 86.8343C61.6538 86.1676 61.8605 85.5809 62.1805 85.0743C62.5005 84.5676 62.9138 84.1676 63.4205 83.8743C63.9272 83.5809 64.5072 83.4343 65.1605 83.4343C65.9872 83.4343 66.7072 83.6409 67.3205 84.0543C67.9338 84.4543 68.4072 85.0409 68.7405 85.8143C69.0872 86.5743 69.2605 87.5009 69.2605 88.5943C69.2605 89.6876 69.0872 90.6276 68.7405 91.4143C68.3938 92.2009 67.9072 92.8009 67.2805 93.2143C66.6672 93.6276 65.9472 93.8343 65.1205 93.8343C64.2138 93.8343 63.4805 93.5676 62.9205 93.0343C62.3605 92.4876 61.9872 91.8009 61.8005 90.9743L62.1205 90.4943V97.8343H58.7205ZM63.9605 91.3343C64.5472 91.3343 65.0072 91.1209 65.3405 90.6943C65.6738 90.2543 65.8405 89.5676 65.8405 88.6343C65.8405 87.7009 65.6738 87.0209 65.3405 86.5943C65.0205 86.1543 64.5672 85.9343 63.9805 85.9343C63.6072 85.9343 63.2805 86.0409 63.0005 86.2543C62.7205 86.4543 62.5005 86.7543 62.3405 87.1543C62.1938 87.5543 62.1205 88.0476 62.1205 88.6343C62.1205 89.1943 62.1872 89.6809 62.3205 90.0943C62.4672 90.4943 62.6805 90.8009 62.9605 91.0143C63.2405 91.2276 63.5738 91.3343 63.9605 91.3343ZM76.1396 93.8343C75.0329 93.8343 74.0729 93.6276 73.2596 93.2143C72.4596 92.8009 71.8396 92.2076 71.3996 91.4343C70.9596 90.6609 70.7396 89.7276 70.7396 88.6343C70.7396 87.5409 70.9596 86.6076 71.3996 85.8343C71.8396 85.0609 72.4529 84.4676 73.2396 84.0543C74.0396 83.6409 74.9529 83.4343 75.9796 83.4343C77.0329 83.4343 77.9262 83.6409 78.6596 84.0543C79.4062 84.4543 79.9729 85.0143 80.3596 85.7343C80.7462 86.4409 80.9396 87.2543 80.9396 88.1743C80.9396 88.4143 80.9329 88.6543 80.9196 88.8943C80.9062 89.1343 80.8862 89.3343 80.8596 89.4943H72.9396V87.6743H79.3596L77.7396 88.2943C77.7396 87.4943 77.5929 86.8809 77.2996 86.4543C77.0196 86.0276 76.5796 85.8143 75.9796 85.8143C75.5529 85.8143 75.1862 85.9143 74.8796 86.1143C74.5862 86.3143 74.3596 86.6276 74.1996 87.0543C74.0529 87.4809 73.9796 88.0276 73.9796 88.6943C73.9796 89.3476 74.0662 89.8809 74.2396 90.2943C74.4129 90.6943 74.6596 90.9876 74.9796 91.1743C75.2996 91.3476 75.6862 91.4343 76.1396 91.4343C76.6462 91.4343 77.0462 91.3343 77.3396 91.1343C77.6462 90.9343 77.8729 90.6543 78.0196 90.2943L80.7396 91.1943C80.5529 91.7676 80.2262 92.2543 79.7596 92.6543C79.3062 93.0409 78.7596 93.3343 78.1196 93.5343C77.4929 93.7343 76.8329 93.8343 76.1396 93.8343ZM87.0416 93.8343C86.0416 93.8343 85.1082 93.6743 84.2416 93.3543C83.3882 93.0209 82.6816 92.5476 82.1216 91.9343L83.7216 90.0543C84.0549 90.4809 84.4949 90.8409 85.0416 91.1343C85.6016 91.4143 86.2216 91.5543 86.9016 91.5543C87.3149 91.5543 87.6549 91.4943 87.9216 91.3743C88.1882 91.2543 88.3216 91.0676 88.3216 90.8143C88.3216 90.6276 88.2549 90.4809 88.1216 90.3743C87.9882 90.2543 87.7216 90.1543 87.3216 90.0743L85.9216 89.7943C84.6682 89.5409 83.7749 89.1676 83.2416 88.6743C82.7216 88.1676 82.4616 87.5076 82.4616 86.6943C82.4616 86.1476 82.6282 85.6276 82.9616 85.1343C83.2949 84.6276 83.8082 84.2209 84.5016 83.9143C85.1949 83.5943 86.0816 83.4343 87.1616 83.4343C88.1749 83.4343 89.0682 83.5809 89.8416 83.8743C90.6149 84.1676 91.2282 84.5943 91.6816 85.1543L90.0616 86.9943C89.7416 86.5943 89.3282 86.2809 88.8216 86.0543C88.3149 85.8276 87.8082 85.7143 87.3016 85.7143C86.9816 85.7143 86.7082 85.7476 86.4816 85.8143C86.2682 85.8676 86.1082 85.9476 86.0016 86.0543C85.8949 86.1609 85.8416 86.2943 85.8416 86.4543C85.8416 86.6276 85.9216 86.7809 86.0816 86.9143C86.2549 87.0343 86.5682 87.1409 87.0216 87.2343L88.8416 87.5943C89.8682 87.7809 90.6082 88.1209 91.0616 88.6143C91.5149 89.1076 91.7416 89.7009 91.7416 90.3943C91.7416 91.0476 91.5682 91.6343 91.2216 92.1543C90.8749 92.6743 90.3549 93.0876 89.6616 93.3943C88.9682 93.6876 88.0949 93.8343 87.0416 93.8343ZM99.0856 87.2943C99.0856 86.8276 98.9523 86.4609 98.6856 86.1943C98.4323 85.9143 98.0856 85.7743 97.6456 85.7743C97.2056 85.7743 96.8256 85.8876 96.5056 86.1143C96.199 86.3276 95.9856 86.7143 95.8656 87.2743L92.9856 86.5943C93.1723 85.6343 93.6656 84.8676 94.4656 84.2943C95.2656 83.7209 96.3923 83.4343 97.8456 83.4343C98.819 83.4343 99.6456 83.5809 100.326 83.8743C101.019 84.1543 101.546 84.5809 101.906 85.1543C102.279 85.7143 102.466 86.4076 102.466 87.2343V90.8943C102.466 91.4143 102.699 91.6743 103.166 91.6743C103.406 91.6743 103.599 91.6476 103.746 91.5943L103.546 93.5343C103.146 93.7209 102.659 93.8143 102.086 93.8143C101.566 93.8143 101.106 93.7343 100.706 93.5743C100.306 93.4009 99.9923 93.1476 99.7656 92.8143C99.539 92.4676 99.4256 92.0343 99.4256 91.5143V91.3943L99.8056 91.2543C99.8056 91.8276 99.6323 92.3076 99.2856 92.6943C98.9523 93.0809 98.5123 93.3676 97.9656 93.5543C97.4323 93.7409 96.8723 93.8343 96.2856 93.8343C95.6056 93.8343 95.0123 93.7276 94.5056 93.5143C93.999 93.3009 93.6056 92.9943 93.3256 92.5943C93.059 92.1809 92.9256 91.6743 92.9256 91.0743C92.9256 90.3543 93.139 89.7609 93.5656 89.2943C94.0056 88.8143 94.6923 88.4809 95.6256 88.2943L99.4056 87.5143L99.3856 89.3143L97.4656 89.7143C97.0656 89.7943 96.7656 89.9143 96.5656 90.0743C96.379 90.2209 96.2856 90.4476 96.2856 90.7543C96.2856 91.0476 96.3923 91.2676 96.6056 91.4143C96.819 91.5609 97.0723 91.6343 97.3656 91.6343C97.5923 91.6343 97.8056 91.6009 98.0056 91.5343C98.219 91.4676 98.4056 91.3676 98.5656 91.2343C98.7256 91.0876 98.8523 90.9076 98.9456 90.6943C99.039 90.4809 99.0856 90.2276 99.0856 89.9343V87.2943Z" fill="#70272E"/>
</svg>
