<svg width="128" height="108" viewBox="0 0 128 108" fill="none" xmlns="http://www.w3.org/2000/svg">
<rect x="0.196777" width="115.496" height="100.976" rx="12" fill="#CDCDCD"/>
<path d="M21.1905 80.4343V93.6343H17.7505V80.4343H21.1905ZM23.8387 93.6343V83.6343H26.8787L26.9787 85.5743C27.2987 84.8676 27.7453 84.3343 28.3187 83.9743C28.9053 83.6143 29.5787 83.4343 30.3387 83.4343C31.0853 83.4343 31.732 83.6009 32.2787 83.9343C32.8253 84.2676 33.232 84.7609 33.4987 85.4143C33.712 84.9743 33.9853 84.6076 34.3187 84.3143C34.6653 84.0209 35.0587 83.8009 35.4987 83.6543C35.9387 83.5076 36.392 83.4343 36.8587 83.4343C37.5253 83.4343 38.112 83.5676 38.6187 83.8343C39.1253 84.0876 39.5253 84.4809 39.8187 85.0143C40.1253 85.5343 40.2787 86.1876 40.2787 86.9743V93.6343H36.8787V87.7543C36.8787 87.1143 36.752 86.6676 36.4987 86.4143C36.2587 86.1609 35.932 86.0343 35.5187 86.0343C35.1853 86.0343 34.8787 86.1209 34.5987 86.2943C34.332 86.4543 34.1253 86.7009 33.9787 87.0343C33.832 87.3676 33.7587 87.7876 33.7587 88.2943V93.6343H30.3587V87.7543C30.3587 87.1143 30.232 86.6676 29.9787 86.4143C29.7253 86.1609 29.3987 86.0343 28.9987 86.0343C28.692 86.0343 28.3987 86.1143 28.1187 86.2743C27.852 86.4343 27.6387 86.6876 27.4787 87.0343C27.3187 87.3676 27.2387 87.8076 27.2387 88.3543V93.6343H23.8387ZM42.6668 97.8343V83.6343H45.7268L45.9068 87.2543L45.5068 86.8343C45.6001 86.1676 45.8068 85.5809 46.1268 85.0743C46.4468 84.5676 46.8601 84.1676 47.3668 83.8743C47.8734 83.5809 48.4534 83.4343 49.1068 83.4343C49.9334 83.4343 50.6534 83.6409 51.2668 84.0543C51.8801 84.4543 52.3534 85.0409 52.6868 85.8143C53.0334 86.5743 53.2068 87.5009 53.2068 88.5943C53.2068 89.6876 53.0334 90.6276 52.6868 91.4143C52.3401 92.2009 51.8534 92.8009 51.2268 93.2143C50.6134 93.6276 49.8934 93.8343 49.0668 93.8343C48.1601 93.8343 47.4268 93.5676 46.8668 93.0343C46.3068 92.4876 45.9334 91.8009 45.7468 90.9743L46.0668 90.4943V97.8343H42.6668ZM47.9068 91.3343C48.4934 91.3343 48.9534 91.1209 49.2868 90.6943C49.6201 90.2543 49.7868 89.5676 49.7868 88.6343C49.7868 87.7009 49.6201 87.0209 49.2868 86.5943C48.9668 86.1543 48.5134 85.9343 47.9268 85.9343C47.5534 85.9343 47.2268 86.0409 46.9468 86.2543C46.6668 86.4543 46.4468 86.7543 46.2868 87.1543C46.1401 87.5543 46.0668 88.0476 46.0668 88.6343C46.0668 89.1943 46.1334 89.6809 46.2668 90.0943C46.4134 90.4943 46.6268 90.8009 46.9068 91.0143C47.1868 91.2276 47.5201 91.3343 47.9068 91.3343ZM59.9658 83.4343C61.0192 83.4343 61.9392 83.6409 62.7258 84.0543C63.5258 84.4543 64.1458 85.0476 64.5858 85.8343C65.0392 86.6076 65.2658 87.5409 65.2658 88.6343C65.2658 89.7276 65.0392 90.6676 64.5858 91.4543C64.1458 92.2276 63.5258 92.8209 62.7258 93.2343C61.9392 93.6343 61.0192 93.8343 59.9658 93.8343C58.9392 93.8343 58.0258 93.6343 57.2258 93.2343C56.4258 92.8209 55.7992 92.2276 55.3458 91.4543C54.9058 90.6676 54.6858 89.7276 54.6858 88.6343C54.6858 87.5409 54.9058 86.6076 55.3458 85.8343C55.7992 85.0476 56.4258 84.4543 57.2258 84.0543C58.0258 83.6409 58.9392 83.4343 59.9658 83.4343ZM59.9658 85.8543C59.5792 85.8543 59.2458 85.9476 58.9658 86.1343C58.6858 86.3209 58.4725 86.6209 58.3258 87.0343C58.1792 87.4476 58.1058 87.9809 58.1058 88.6343C58.1058 89.2876 58.1792 89.8209 58.3258 90.2343C58.4725 90.6343 58.6858 90.9343 58.9658 91.1343C59.2458 91.3209 59.5792 91.4143 59.9658 91.4143C60.3658 91.4143 60.7058 91.3209 60.9858 91.1343C61.2658 90.9343 61.4792 90.6343 61.6258 90.2343C61.7725 89.8209 61.8458 89.2876 61.8458 88.6343C61.8458 87.9809 61.7725 87.4476 61.6258 87.0343C61.4792 86.6209 61.2658 86.3209 60.9858 86.1343C60.7058 85.9476 60.3658 85.8543 59.9658 85.8543ZM67.1785 93.6343V83.6343H70.1785L70.3185 85.7943C70.5718 85.0476 70.9452 84.4676 71.4385 84.0543C71.9452 83.6409 72.5852 83.4343 73.3585 83.4343C73.6118 83.4343 73.8252 83.4543 73.9985 83.4943C74.1852 83.5343 74.3318 83.5876 74.4385 83.6543L74.0985 86.4543C73.9652 86.4009 73.7918 86.3609 73.5785 86.3343C73.3785 86.2943 73.1318 86.2743 72.8385 86.2743C72.4385 86.2743 72.0652 86.3609 71.7185 86.5343C71.3718 86.7076 71.0918 86.9676 70.8785 87.3143C70.6785 87.6476 70.5785 88.0743 70.5785 88.5943V93.6343H67.1785ZM79.6983 80.4543V90.0743C79.6983 90.5543 79.8117 90.9009 80.0383 91.1143C80.2783 91.3143 80.605 91.4143 81.0183 91.4143C81.3383 91.4143 81.6117 91.3809 81.8383 91.3143C82.0783 91.2343 82.2917 91.1209 82.4783 90.9743L82.8383 93.0743C82.505 93.3143 82.085 93.5009 81.5783 93.6343C81.0717 93.7676 80.5517 93.8343 80.0183 93.8343C79.2583 93.8343 78.5983 93.7276 78.0383 93.5143C77.4917 93.3009 77.065 92.9609 76.7583 92.4943C76.465 92.0276 76.3117 91.4076 76.2983 90.6343V81.3943L79.6983 80.4543ZM82.6783 83.6343V86.0543H74.5783V83.6343H82.6783ZM90.0046 87.2943C90.0046 86.8276 89.8713 86.4609 89.6046 86.1943C89.3513 85.9143 89.0046 85.7743 88.5646 85.7743C88.1246 85.7743 87.7446 85.8876 87.4246 86.1143C87.1179 86.3276 86.9046 86.7143 86.7846 87.2743L83.9046 86.5943C84.0913 85.6343 84.5846 84.8676 85.3846 84.2943C86.1846 83.7209 87.3113 83.4343 88.7646 83.4343C89.7379 83.4343 90.5646 83.5809 91.2446 83.8743C91.9379 84.1543 92.4646 84.5809 92.8246 85.1543C93.1979 85.7143 93.3846 86.4076 93.3846 87.2343V90.8943C93.3846 91.4143 93.6179 91.6743 94.0846 91.6743C94.3246 91.6743 94.5179 91.6476 94.6646 91.5943L94.4646 93.5343C94.0646 93.7209 93.5779 93.8143 93.0046 93.8143C92.4846 93.8143 92.0246 93.7343 91.6246 93.5743C91.2246 93.4009 90.9113 93.1476 90.6846 92.8143C90.4579 92.4676 90.3446 92.0343 90.3446 91.5143V91.3943L90.7246 91.2543C90.7246 91.8276 90.5513 92.3076 90.2046 92.6943C89.8713 93.0809 89.4313 93.3676 88.8846 93.5543C88.3513 93.7409 87.7913 93.8343 87.2046 93.8343C86.5246 93.8343 85.9313 93.7276 85.4246 93.5143C84.9179 93.3009 84.5246 92.9943 84.2446 92.5943C83.9779 92.1809 83.8446 91.6743 83.8446 91.0743C83.8446 90.3543 84.0579 89.7609 84.4846 89.2943C84.9246 88.8143 85.6113 88.4809 86.5446 88.2943L90.3246 87.5143L90.3046 89.3143L88.3846 89.7143C87.9846 89.7943 87.6846 89.9143 87.4846 90.0743C87.2979 90.2209 87.2046 90.4476 87.2046 90.7543C87.2046 91.0476 87.3113 91.2676 87.5246 91.4143C87.7379 91.5609 87.9913 91.6343 88.2846 91.6343C88.5113 91.6343 88.7246 91.6009 88.9246 91.5343C89.1379 91.4676 89.3246 91.3676 89.4846 91.2343C89.6446 91.0876 89.7713 90.9076 89.8646 90.6943C89.9579 90.4809 90.0046 90.2276 90.0046 89.9343V87.2943ZM96.0066 93.6343V83.6343H99.0066L99.1466 85.7943C99.4 85.0476 99.7733 84.4676 100.267 84.0543C100.773 83.6409 101.413 83.4343 102.187 83.4343C102.44 83.4343 102.653 83.4543 102.827 83.4943C103.013 83.5343 103.16 83.5876 103.267 83.6543L102.927 86.4543C102.793 86.4009 102.62 86.3609 102.407 86.3343C102.207 86.2943 101.96 86.2743 101.667 86.2743C101.267 86.2743 100.893 86.3609 100.547 86.5343C100.2 86.7076 99.92 86.9676 99.7066 87.3143C99.5066 87.6476 99.4066 88.0743 99.4066 88.5943V93.6343H96.0066Z" fill="#434343"/>
<path d="M79.6004 46.6467V55.5735C79.6004 56.7573 79.0602 57.8926 78.0985 58.7296C77.1368 59.5667 75.8325 60.0369 74.4725 60.0369H38.5771C37.2171 60.0369 35.9128 59.5667 34.9511 58.7296C33.9895 57.8926 33.4492 56.7573 33.4492 55.5735V46.6467M43.705 35.4882L56.5248 46.6467M56.5248 46.6467L69.3446 35.4882M56.5248 46.6467V19.8662" stroke="#434343" stroke-width="4" stroke-linecap="round" stroke-linejoin="round"/>
</svg>
