<svg width="138" height="36" viewBox="0 0 138 36" fill="none" xmlns="http://www.w3.org/2000/svg">
<path d="M2.61 36C2.31 36 2.16 35.85 2.16 35.55V12.456C2.16 12.156 2.31 12.006 2.61 12.006H12.564C12.852 12.006 13.092 12.102 13.284 12.294L16.884 15.894C17.088 16.098 17.19 16.338 17.19 16.614V22.824C17.19 23.112 17.088 23.352 16.884 23.544L13.284 27.144C13.092 27.348 12.852 27.45 12.564 27.45H8.154V35.55C8.154 35.85 8.004 36 7.704 36H2.61ZM9.504 22.554C10.5 22.554 11.178 22.356 11.538 21.96C11.91 21.564 12.096 20.814 12.096 19.71C12.096 18.606 11.91 17.856 11.538 17.46C11.178 17.064 10.5 16.866 9.504 16.866C8.52 16.866 7.842 17.064 7.47 17.46C7.11 17.856 6.93 18.606 6.93 19.71C6.93 20.814 7.11 21.564 7.47 21.96C7.842 22.356 8.52 22.554 9.504 22.554ZM24.5897 36C24.3137 36 24.0737 35.898 23.8697 35.694L20.2697 32.094C20.0657 31.902 19.9637 31.662 19.9637 31.374V20.826C19.9637 20.538 20.0657 20.298 20.2697 20.106L23.8697 16.506C24.0737 16.302 24.3137 16.2 24.5897 16.2H30.0437C30.3317 16.2 30.5717 16.302 30.7637 16.506L34.3637 20.106C34.5677 20.298 34.6697 20.538 34.6697 20.826V31.374C34.6697 31.662 34.5677 31.902 34.3637 32.094L30.7637 35.694C30.5717 35.898 30.3317 36 30.0437 36H24.5897ZM26.6957 31.806H27.9557C28.3397 31.806 28.6037 31.728 28.7477 31.572C28.8917 31.416 28.9637 31.14 28.9637 30.744V21.456C28.9637 21.06 28.8917 20.784 28.7477 20.628C28.6037 20.472 28.3397 20.394 27.9557 20.394H26.6957C26.2997 20.394 26.0297 20.472 25.8857 20.628C25.7417 20.784 25.6697 21.06 25.6697 21.456V30.744C25.6697 31.14 25.7417 31.416 25.8857 31.572C26.0297 31.728 26.2997 31.806 26.6957 31.806ZM43.4891 36C43.2011 36 42.9611 35.898 42.7691 35.694L39.1691 32.094C38.9651 31.902 38.8631 31.662 38.8631 31.374V16.65C38.8631 16.35 39.0131 16.2 39.3131 16.2H44.1191C44.4191 16.2 44.5691 16.35 44.5691 16.65V30.654C44.5691 31.218 44.8451 31.5 45.3971 31.5H47.8631V16.65C47.8631 16.35 48.0131 16.2 48.3131 16.2H53.1191C53.4191 16.2 53.5691 16.35 53.5691 16.65V35.55C53.5691 35.85 53.4191 36 53.1191 36H43.4891ZM58.2272 36C57.9272 36 57.7772 35.85 57.7772 35.55V12.456C57.7772 12.156 57.9272 12.006 58.2272 12.006H68.1812C68.4692 12.006 68.7092 12.102 68.9012 12.294L72.5012 15.894C72.7052 16.098 72.8072 16.338 72.8072 16.614V22.824C72.8072 23.112 72.7052 23.352 72.5012 23.544L68.9012 27.144C68.7092 27.348 68.4692 27.45 68.1812 27.45H63.7712V35.55C63.7712 35.85 63.6212 36 63.3212 36H58.2272ZM65.1212 22.554C66.1172 22.554 66.7952 22.356 67.1552 21.96C67.5272 21.564 67.7132 20.814 67.7132 19.71C67.7132 18.606 67.5272 17.856 67.1552 17.46C66.7952 17.064 66.1172 16.866 65.1212 16.866C64.1372 16.866 63.4592 17.064 63.0872 17.46C62.7272 17.856 62.5472 18.606 62.5472 19.71C62.5472 20.814 62.7272 21.564 63.0872 21.96C63.4592 22.356 64.1372 22.554 65.1212 22.554ZM76.1569 36C75.8569 36 75.7069 35.85 75.7069 35.55V16.65C75.7069 16.35 75.8569 16.2 76.1569 16.2H80.9449C81.2449 16.2 81.3949 16.35 81.3949 16.65V35.55C81.3949 35.85 81.2449 36 80.9449 36H76.1569ZM76.0669 14.706C75.8269 14.706 75.7069 14.586 75.7069 14.346V12.06C75.7069 11.82 75.8269 11.7 76.0669 11.7H81.0709C81.2869 11.7 81.3949 11.82 81.3949 12.06V14.346C81.3949 14.586 81.2869 14.706 81.0709 14.706H76.0669ZM85.9818 36C85.6818 36 85.5318 35.85 85.5318 35.55V28.71C85.5318 28.602 85.5378 28.506 85.5498 28.422C85.5738 28.326 85.6278 28.242 85.7118 28.17L88.0518 26.28V25.65L85.6398 23.724C85.5558 23.652 85.5018 23.574 85.4778 23.49C85.4658 23.394 85.4598 23.292 85.4598 23.184V16.65C85.4598 16.35 85.6098 16.2 85.9098 16.2H90.7158C91.0158 16.2 91.1658 16.35 91.1658 16.65V23.724H94.4418V16.65C94.4418 16.35 94.5918 16.2 94.8918 16.2H99.6798C99.9798 16.2 100.13 16.35 100.13 16.65V23.184C100.13 23.292 100.124 23.394 100.112 23.49C100.1 23.574 100.046 23.652 99.9498 23.724L97.5558 25.65V26.28L100.022 28.17C100.118 28.23 100.172 28.308 100.184 28.404C100.196 28.5 100.202 28.602 100.202 28.71V35.55C100.202 35.85 100.052 36 99.7518 36H94.9458C94.6458 36 94.4958 35.85 94.4958 35.55V28.17H91.2198V35.55C91.2198 35.85 91.0698 36 90.7698 36H85.9818Z" fill="white"/>
<path d="M101.475 17.3333C101.475 17.5654 101.383 17.788 101.219 17.952C101.055 18.1161 100.832 18.2083 100.6 18.2083C100.368 18.2083 100.145 18.1161 99.9813 17.952C99.8172 17.788 99.725 17.5654 99.725 17.3333C99.725 17.1013 99.8172 16.8787 99.9813 16.7146C100.145 16.5505 100.368 16.4583 100.6 16.4583C100.832 16.4583 101.055 16.5505 101.219 16.7146C101.383 16.8787 101.475 17.1013 101.475 17.3333Z" fill="white"/>
<path d="M101.969 8.38499L103.824 10.9843L105.047 10.5672L106.164 13.8333H106.725V20.8333H94.475V13.8333H94.7725V13.8275L95.1505 13.831L101.969 8.38499ZM99.0816 13.8333H104.931L104.326 12.0641L103.438 12.3482L99.0816 13.8333ZM98.1727 12.9099L102.671 11.3775L101.735 10.065L98.1727 12.9099ZM96.8083 15H95.6416V16.1667C95.9511 16.1667 96.2478 16.0437 96.4666 15.825C96.6854 15.6062 96.8083 15.3094 96.8083 15ZM102.642 17.3333C102.642 17.0652 102.589 16.7997 102.486 16.552C102.384 16.3043 102.233 16.0792 102.044 15.8897C101.854 15.7001 101.629 15.5497 101.381 15.4471C101.134 15.3445 100.868 15.2917 100.6 15.2917C100.332 15.2917 100.066 15.3445 99.8187 15.4471C99.571 15.5497 99.3459 15.7001 99.1563 15.8897C98.9667 16.0792 98.8163 16.3043 98.7137 16.552C98.6111 16.7997 98.5583 17.0652 98.5583 17.3333C98.5583 17.8748 98.7734 18.3941 99.1563 18.777C99.5392 19.1599 100.058 19.375 100.6 19.375C101.141 19.375 101.661 19.1599 102.044 18.777C102.427 18.3941 102.642 17.8748 102.642 17.3333ZM105.558 19.6667V18.5C105.249 18.5 104.952 18.6229 104.733 18.8417C104.515 19.0605 104.392 19.3572 104.392 19.6667H105.558ZM104.392 15C104.392 15.3094 104.515 15.6062 104.733 15.825C104.952 16.0437 105.249 16.1667 105.558 16.1667V15H104.392ZM95.6416 19.6667H96.8083C96.8083 19.3572 96.6854 19.0605 96.4666 18.8417C96.2478 18.6229 95.9511 18.5 95.6416 18.5V19.6667Z" fill="white"/>
</svg>
