<svg width="107" height="36" viewBox="0 0 107 36" fill="none" xmlns="http://www.w3.org/2000/svg">
<g filter="url(#filter0_d_175_201)">
<path d="M4.43327 27.9069C4.14443 27.9069 4 27.7685 4 27.492V6.20027C4 5.92367 4.14443 5.78537 4.43327 5.78537H14.0174C14.2947 5.78537 14.5259 5.87387 14.7106 6.05087L18.1769 9.36997C18.3733 9.55807 18.4715 9.77927 18.4715 10.0338V15.7591C18.4715 16.0247 18.3733 16.246 18.1769 16.4229L14.7106 19.742C14.5259 19.9301 14.2947 20.0241 14.0174 20.0241H9.77128V27.492C9.77128 27.7685 9.62683 27.9069 9.338 27.9069H4.43327ZM11.0711 15.5102C12.0301 15.5102 12.6829 15.3277 13.0296 14.9626C13.3877 14.5975 13.5668 13.906 13.5668 12.8882C13.5668 11.8703 13.3877 11.1789 13.0296 10.8138C12.6829 10.4487 12.0301 10.2661 11.0711 10.2661C10.1237 10.2661 9.47091 10.4487 9.1127 10.8138C8.76607 11.1789 8.59276 11.8703 8.59276 12.8882C8.59276 13.906 8.76607 14.5975 9.1127 14.9626C9.47091 15.3277 10.1237 15.5102 11.0711 15.5102ZM25.5963 27.9069C25.3305 27.9069 25.0994 27.8128 24.903 27.6247L21.4367 24.3057C21.2403 24.1287 21.1421 23.9074 21.1421 23.6419V13.9171C21.1421 13.6515 21.2403 13.4302 21.4367 13.2533L24.903 9.93417C25.0994 9.74607 25.3305 9.65207 25.5963 9.65207H30.8476C31.1249 9.65207 31.356 9.74607 31.5409 9.93417L35.007 13.2533C35.2036 13.4302 35.3017 13.6515 35.3017 13.9171V23.6419C35.3017 23.9074 35.2036 24.1287 35.007 24.3057L31.5409 27.6247C31.356 27.8128 31.1249 27.9069 30.8476 27.9069H25.5963ZM27.624 24.0402H28.8372C29.207 24.0402 29.4612 23.9682 29.5998 23.8244C29.7384 23.6806 29.8077 23.4261 29.8077 23.061V14.4979C29.8077 14.1328 29.7384 13.8783 29.5998 13.7345C29.4612 13.5907 29.207 13.5188 28.8372 13.5188H27.624C27.2428 13.5188 26.9827 13.5907 26.8441 13.7345C26.7054 13.8783 26.6362 14.1328 26.6362 14.4979V23.061C26.6362 23.4261 26.7054 23.6806 26.8441 23.8244C26.9827 23.9682 27.2428 24.0402 27.624 24.0402ZM43.7935 27.9069C43.5162 27.9069 43.2851 27.8128 43.1002 27.6247L39.634 24.3057C39.4375 24.1287 39.3393 23.9074 39.3393 23.6419V10.067C39.3393 9.79037 39.4837 9.65207 39.7726 9.65207H44.4001C44.6889 9.65207 44.8334 9.79037 44.8334 10.067V22.9781C44.8334 23.4981 45.099 23.758 45.6306 23.758H48.0049V10.067C48.0049 9.79037 48.1493 9.65207 48.4382 9.65207H53.0657C53.3545 9.65207 53.4989 9.79037 53.4989 10.067V27.492C53.4989 27.7685 53.3545 27.9069 53.0657 27.9069H43.7935Z" fill="#172A3A"/>
<path d="M57.9838 27.9069C57.695 27.9069 57.5505 27.7685 57.5505 27.492V6.20027C57.5505 5.92367 57.695 5.78537 57.9838 5.78537H67.5679C67.8452 5.78537 68.0764 5.87397 68.2612 6.05087L71.7275 9.36997C71.9239 9.55807 72.0221 9.77927 72.0221 10.0338V15.7592C72.0221 16.0247 71.9239 16.246 71.7275 16.423L68.2612 19.742C68.0764 19.9301 67.8452 20.0241 67.5679 20.0241H63.3218V27.492C63.3218 27.7685 63.1774 27.9069 62.8885 27.9069H57.9838ZM64.6217 15.5102C65.5806 15.5102 66.2334 15.3277 66.5801 14.9626C66.9383 14.5975 67.1173 13.906 67.1173 12.8882C67.1173 11.8703 66.9383 11.1789 66.5801 10.8138C66.2334 10.4487 65.5806 10.2661 64.6217 10.2661C63.6743 10.2661 63.0214 10.4487 62.6632 10.8138C62.3166 11.1789 62.1433 11.8703 62.1433 12.8882C62.1433 13.906 62.3166 14.5975 62.6632 14.9626C63.0214 15.3277 63.6743 15.5102 64.6217 15.5102ZM75.2473 27.9069C74.9585 27.9069 74.814 27.7685 74.814 27.492V10.067C74.814 9.79037 74.9585 9.65207 75.2473 9.65207H79.8573C80.1463 9.65207 80.2906 9.79037 80.2906 10.067V27.492C80.2906 27.7685 80.1463 27.9069 79.8573 27.9069H75.2473ZM75.1606 8.27467C74.9296 8.27467 74.814 8.16407 74.814 7.94277V5.83517C74.814 5.61387 74.9296 5.50327 75.1606 5.50327H79.9787C80.1867 5.50327 80.2906 5.61387 80.2906 5.83517V7.94277C80.2906 8.16407 80.1867 8.27467 79.9787 8.27467H75.1606ZM84.7071 27.9069C84.4184 27.9069 84.2738 27.7685 84.2738 27.492V21.1858C84.2738 21.0862 84.2797 20.9977 84.2911 20.9203C84.3143 20.8317 84.3663 20.7543 84.4472 20.6879L86.7002 18.9454V18.3646L84.3779 16.5889C84.297 16.5225 84.245 16.4506 84.2219 16.3732C84.2104 16.2846 84.2045 16.1906 84.2045 16.0911V10.067C84.2045 9.79037 84.349 9.65207 84.6378 9.65207H89.2653C89.5541 9.65207 89.6985 9.79037 89.6985 10.067V16.5889H92.8532V10.067C92.8532 9.79037 92.9976 9.65207 93.2863 9.65207H97.8962C98.1849 9.65207 98.3293 9.79037 98.3293 10.067V16.0911C98.3293 16.1906 98.3239 16.2846 98.3122 16.3732C98.3004 16.4506 98.249 16.5225 98.1561 16.5889L95.8507 18.3646V18.9454L98.2255 20.6879C98.3176 20.7433 98.3699 20.8151 98.3816 20.9037C98.3934 20.9922 98.3988 21.0862 98.3988 21.1858V27.492C98.3988 27.7685 98.2544 27.9069 97.9657 27.9069H93.3378C93.049 27.9069 92.9047 27.7685 92.9047 27.492V20.6879H89.7505V27.492C89.7505 27.7685 89.6061 27.9069 89.3172 27.9069H84.7071Z" fill="#09BC8A"/>
</g>
<path d="M100.512 9.35928C100.512 9.60198 100.411 9.83478 100.231 10.0064C100.053 10.178 99.8091 10.2744 99.5555 10.2744C99.3029 10.2744 99.0593 10.178 98.8797 10.0064C98.7011 9.83478 98.6 9.60198 98.6 9.35928C98.6 9.11658 98.7011 8.88378 98.8797 8.71218C99.0593 8.54048 99.3029 8.44408 99.5555 8.44408C99.8091 8.44408 100.053 8.54048 100.231 8.71218C100.411 8.88378 100.512 9.11658 100.512 9.35928Z" fill="#09BC8A"/>
<path d="M101.052 0L103.077 2.71869L104.414 2.28245L105.633 5.69847H106.247V13.02H92.8659V5.69847H93.1907V5.69247L93.6031 5.69607L101.052 0ZM97.8971 5.69847H104.287L103.627 3.84802L102.656 4.14515L97.8971 5.69847ZM96.9046 4.73267L101.818 3.12991L100.796 1.75714L96.9046 4.73267ZM95.414 6.91877H94.1399V8.13897C94.4783 8.13897 94.8022 8.01037 95.0413 7.78157C95.2795 7.55277 95.414 7.24237 95.414 6.91877ZM101.786 9.35917C101.786 9.07877 101.728 8.80117 101.616 8.54207C101.504 8.28297 101.34 8.04747 101.133 7.84927C100.926 7.65097 100.68 7.49367 100.409 7.38637C100.138 7.27907 99.8488 7.22377 99.5555 7.22377C99.2632 7.22377 98.9726 7.27907 98.7029 7.38637C98.4322 7.49367 98.1858 7.65097 97.9792 7.84927C97.7717 8.04747 97.6075 8.28297 97.4956 8.54207C97.3837 8.80117 97.3259 9.07877 97.3259 9.35917C97.3259 9.92557 97.5605 10.4688 97.9792 10.8692C98.397 11.2697 98.9645 11.4947 99.5555 11.4947C100.147 11.4947 100.715 11.2697 101.133 10.8692C101.551 10.4688 101.786 9.92557 101.786 9.35917ZM104.972 11.7997V10.5795C104.634 10.5795 104.31 10.708 104.072 10.9369C103.832 11.1657 103.698 11.4761 103.698 11.7997H104.972ZM103.698 6.91877C103.698 7.24237 103.832 7.55277 104.072 7.78157C104.31 8.01037 104.634 8.13897 104.972 8.13897V6.91877H103.698ZM94.1399 11.7997H95.414C95.414 11.4761 95.2795 11.1657 95.0413 10.9369C94.8022 10.708 94.4783 10.5795 94.1399 10.5795V11.7997Z" fill="#09BC8A"/>
<defs>
<filter id="filter0_d_175_201" x="0" y="5.50327" width="102.399" height="30.4036" filterUnits="userSpaceOnUse" color-interpolation-filters="sRGB">
<feFlood flood-opacity="0" result="BackgroundImageFix"/>
<feColorMatrix in="SourceAlpha" type="matrix" values="0 0 0 0 0 0 0 0 0 0 0 0 0 0 0 0 0 0 127 0" result="hardAlpha"/>
<feOffset dy="4"/>
<feGaussianBlur stdDeviation="2"/>
<feComposite in2="hardAlpha" operator="out"/>
<feColorMatrix type="matrix" values="0 0 0 0 0 0 0 0 0 0 0 0 0 0 0 0 0 0 0.25 0"/>
<feBlend mode="normal" in2="BackgroundImageFix" result="effect1_dropShadow_175_201"/>
<feBlend mode="normal" in="SourceGraphic" in2="effect1_dropShadow_175_201" result="shape"/>
</filter>
</defs>
</svg>
