<svg width="135" height="108" viewBox="0 0 135 108" fill="none" xmlns="http://www.w3.org/2000/svg">
<rect width="115.496" height="100.976" rx="12" fill="#96E5CF"/>
<path d="M30.4807 81.3122C32.054 81.3122 33.274 81.6855 34.1407 82.4322C35.0207 83.1655 35.4607 84.1455 35.4607 85.3722C35.4607 86.7189 35.0274 87.7455 34.1607 88.4522C33.294 89.1589 32.074 89.5122 30.5007 89.5122L30.1807 89.6922H27.5607V94.5122H24.1807V81.3122H30.4807ZM30.0007 87.2522C30.6674 87.2522 31.1674 87.1189 31.5007 86.8522C31.834 86.5855 32.0007 86.1589 32.0007 85.5722C32.0007 84.9989 31.834 84.5789 31.5007 84.3122C31.1674 84.0455 30.6674 83.9122 30.0007 83.9122H27.5607V87.2522H30.0007ZM32.0207 87.9722L36.2407 94.5122H32.4407L29.0607 88.7322L32.0207 87.9722ZM42.473 94.7122C41.3664 94.7122 40.4064 94.5055 39.593 94.0922C38.793 93.6789 38.173 93.0855 37.733 92.3122C37.293 91.5389 37.073 90.6055 37.073 89.5122C37.073 88.4189 37.293 87.4855 37.733 86.7122C38.173 85.9389 38.7864 85.3455 39.573 84.9322C40.373 84.5189 41.2864 84.3122 42.313 84.3122C43.3664 84.3122 44.2597 84.5189 44.993 84.9322C45.7397 85.3322 46.3064 85.8922 46.693 86.6122C47.0797 87.3189 47.273 88.1322 47.273 89.0522C47.273 89.2922 47.2664 89.5322 47.253 89.7722C47.2397 90.0122 47.2197 90.2122 47.193 90.3722H39.273V88.5522H45.693L44.073 89.1722C44.073 88.3722 43.9264 87.7589 43.633 87.3322C43.353 86.9055 42.913 86.6922 42.313 86.6922C41.8864 86.6922 41.5197 86.7922 41.213 86.9922C40.9197 87.1922 40.693 87.5055 40.533 87.9322C40.3864 88.3589 40.313 88.9055 40.313 89.5722C40.313 90.2255 40.3997 90.7589 40.573 91.1722C40.7464 91.5722 40.993 91.8655 41.313 92.0522C41.633 92.2255 42.0197 92.3122 42.473 92.3122C42.9797 92.3122 43.3797 92.2122 43.673 92.0122C43.9797 91.8122 44.2064 91.5322 44.353 91.1722L47.073 92.0722C46.8864 92.6455 46.5597 93.1322 46.093 93.5322C45.6397 93.9189 45.093 94.2122 44.453 94.4122C43.8264 94.6122 43.1664 94.7122 42.473 94.7122ZM53.9151 84.3122C54.9284 84.3122 55.7684 84.4589 56.4351 84.7522C57.1151 85.0322 57.6417 85.4122 58.0151 85.8922C58.4017 86.3589 58.6417 86.8655 58.7351 87.4122L55.5951 88.4522C55.5017 87.8789 55.3284 87.4522 55.0751 87.1722C54.8351 86.8789 54.4817 86.7322 54.0151 86.7322C53.5884 86.7322 53.2284 86.8322 52.9351 87.0322C52.6551 87.2189 52.4417 87.5255 52.2951 87.9522C52.1484 88.3655 52.0751 88.8989 52.0751 89.5522C52.0751 90.2055 52.1551 90.7389 52.3151 91.1522C52.4751 91.5522 52.7017 91.8455 52.9951 92.0322C53.2884 92.2055 53.6351 92.2922 54.0351 92.2922C54.3684 92.2922 54.6417 92.2322 54.8551 92.1122C55.0817 91.9789 55.2684 91.7922 55.4151 91.5522C55.5617 91.3122 55.6551 91.0189 55.6951 90.6722L58.7551 91.6522C58.6617 92.2389 58.4084 92.7655 57.9951 93.2322C57.5951 93.6855 57.0617 94.0455 56.3951 94.3122C55.7284 94.5789 54.9484 94.7122 54.0551 94.7122C52.9617 94.7122 52.0084 94.5122 51.1951 94.1122C50.3817 93.6989 49.7551 93.1055 49.3151 92.3322C48.8751 91.5455 48.6551 90.6055 48.6551 89.5122C48.6551 88.4189 48.8751 87.4855 49.3151 86.7122C49.7551 85.9255 50.3684 85.3322 51.1551 84.9322C51.9551 84.5189 52.8751 84.3122 53.9151 84.3122ZM65.4027 94.7122C64.2961 94.7122 63.3361 94.5055 62.5227 94.0922C61.7227 93.6789 61.1027 93.0855 60.6627 92.3122C60.2227 91.5389 60.0027 90.6055 60.0027 89.5122C60.0027 88.4189 60.2227 87.4855 60.6627 86.7122C61.1027 85.9389 61.7161 85.3455 62.5027 84.9322C63.3027 84.5189 64.2161 84.3122 65.2427 84.3122C66.2961 84.3122 67.1894 84.5189 67.9227 84.9322C68.6694 85.3322 69.2361 85.8922 69.6227 86.6122C70.0094 87.3189 70.2027 88.1322 70.2027 89.0522C70.2027 89.2922 70.1961 89.5322 70.1827 89.7722C70.1694 90.0122 70.1494 90.2122 70.1227 90.3722H62.2027V88.5522H68.6227L67.0027 89.1722C67.0027 88.3722 66.8561 87.7589 66.5627 87.3322C66.2827 86.9055 65.8427 86.6922 65.2427 86.6922C64.8161 86.6922 64.4494 86.7922 64.1427 86.9922C63.8494 87.1922 63.6227 87.5055 63.4627 87.9322C63.3161 88.3589 63.2427 88.9055 63.2427 89.5722C63.2427 90.2255 63.3294 90.7589 63.5027 91.1722C63.6761 91.5722 63.9227 91.8655 64.2427 92.0522C64.5627 92.2255 64.9494 92.3122 65.4027 92.3122C65.9094 92.3122 66.3094 92.2122 66.6027 92.0122C66.9094 91.8122 67.1361 91.5322 67.2827 91.1722L70.0027 92.0722C69.8161 92.6455 69.4894 93.1322 69.0227 93.5322C68.5694 93.9189 68.0227 94.2122 67.3827 94.4122C66.7561 94.6122 66.0961 94.7122 65.4027 94.7122ZM73.8048 83.3522C73.1114 83.3522 72.6048 83.2255 72.2848 82.9722C71.9781 82.7055 71.8248 82.2922 71.8248 81.7322C71.8248 81.1589 71.9781 80.7455 72.2848 80.4922C72.6048 80.2255 73.1114 80.0922 73.8048 80.0922C74.4848 80.0922 74.9848 80.2255 75.3048 80.4922C75.6248 80.7455 75.7848 81.1589 75.7848 81.7322C75.7848 82.2922 75.6248 82.7055 75.3048 82.9722C74.9848 83.2255 74.4848 83.3522 73.8048 83.3522ZM75.5048 84.5122V94.5122H72.1048V84.5122H75.5048ZM82.1051 81.3322V90.9522C82.1051 91.4322 82.2184 91.7789 82.4451 91.9922C82.6851 92.1922 83.0117 92.2922 83.4251 92.2922C83.7451 92.2922 84.0184 92.2589 84.2451 92.1922C84.4851 92.1122 84.6984 91.9989 84.8851 91.8522L85.2451 93.9522C84.9117 94.1922 84.4917 94.3789 83.9851 94.5122C83.4784 94.6455 82.9584 94.7122 82.4251 94.7122C81.6651 94.7122 81.0051 94.6055 80.4451 94.3922C79.8984 94.1789 79.4717 93.8389 79.1651 93.3722C78.8717 92.9055 78.7184 92.2855 78.7051 91.5122V82.2722L82.1051 81.3322ZM85.0851 84.5122V86.9322H76.9851V84.5122H85.0851ZM92.4113 88.1722C92.4113 87.7055 92.278 87.3389 92.0113 87.0722C91.758 86.7922 91.4113 86.6522 90.9713 86.6522C90.5313 86.6522 90.1513 86.7655 89.8313 86.9922C89.5247 87.2055 89.3113 87.5922 89.1913 88.1522L86.3113 87.4722C86.498 86.5122 86.9913 85.7455 87.7913 85.1722C88.5913 84.5989 89.718 84.3122 91.1713 84.3122C92.1447 84.3122 92.9713 84.4589 93.6513 84.7522C94.3447 85.0322 94.8713 85.4589 95.2313 86.0322C95.6047 86.5922 95.7913 87.2855 95.7913 88.1122V91.7722C95.7913 92.2922 96.0247 92.5522 96.4913 92.5522C96.7313 92.5522 96.9247 92.5255 97.0713 92.4722L96.8713 94.4122C96.4713 94.5989 95.9847 94.6922 95.4113 94.6922C94.8913 94.6922 94.4313 94.6122 94.0313 94.4522C93.6313 94.2789 93.318 94.0255 93.0913 93.6922C92.8647 93.3455 92.7513 92.9122 92.7513 92.3922V92.2722L93.1313 92.1322C93.1313 92.7055 92.958 93.1855 92.6113 93.5722C92.278 93.9589 91.838 94.2455 91.2913 94.4322C90.758 94.6189 90.198 94.7122 89.6113 94.7122C88.9313 94.7122 88.338 94.6055 87.8313 94.3922C87.3247 94.1789 86.9313 93.8722 86.6513 93.4722C86.3847 93.0589 86.2513 92.5522 86.2513 91.9522C86.2513 91.2322 86.4647 90.6389 86.8913 90.1722C87.3313 89.6922 88.018 89.3589 88.9513 89.1722L92.7313 88.3922L92.7113 90.1922L90.7913 90.5922C90.3913 90.6722 90.0913 90.7922 89.8913 90.9522C89.7047 91.0989 89.6113 91.3255 89.6113 91.6322C89.6113 91.9255 89.718 92.1455 89.9313 92.2922C90.1447 92.4389 90.398 92.5122 90.6913 92.5122C90.918 92.5122 91.1313 92.4789 91.3313 92.4122C91.5447 92.3455 91.7313 92.2455 91.8913 92.1122C92.0513 91.9655 92.178 91.7855 92.2713 91.5722C92.3647 91.3589 92.4113 91.1055 92.4113 90.8122V88.1722Z" fill="#253C36"/>
<path d="M58.2216 30.439V50.3415M47.9658 40.3902H68.4774M40.2739 18H76.1693C79.0014 18 81.2972 20.2277 81.2972 22.9756V57.8049C81.2972 60.5528 79.0014 62.7805 76.1693 62.7805H40.2739C37.4418 62.7805 35.146 60.5528 35.146 57.8049V22.9756C35.146 20.2277 37.4418 18 40.2739 18Z" stroke="#253C36" stroke-width="4" stroke-linecap="round" stroke-linejoin="round"/>
</svg>
